<?xml version="1.0" standalone="no"?>
<!DOCTYPE svg PUBLIC "-//W3C//DTD SVG 20010904//EN"
 "http://www.w3.org/TR/2001/REC-SVG-20010904/DTD/svg10.dtd">
<svg version="1.0" xmlns="http://www.w3.org/2000/svg"
 width="162.000000pt" height="102.000000pt" viewBox="0 0 162.000000 102.000000"
 preserveAspectRatio="xMidYMid meet">

<g transform="translate(0.000000,102.000000) scale(0.100000,-0.100000)"
fill="#000000" stroke="none">
<path d="M582 654 c-40 -92 -70 -169 -68 -171 2 -2 13 18 24 44 71 164 83 188
92 172 9 -15 100 -267 100 -275 0 -2 -52 -4 -116 -4 l-116 0 6 28 c3 15 -8 0
-24 -33 -32 -68 -40 -100 -9 -42 l19 37 123 0 122 0 31 -88 31 -87 38 -3 c33
-3 37 -1 30 15 -4 10 -50 137 -101 282 -52 145 -98 271 -103 279 -5 10 -30
-38 -79 -154z"/>
<path d="M1063 780 c-96 -48 -136 -125 -136 -260 -1 -142 56 -239 160 -274 72
-25 96 -19 37 8 -92 43 -129 122 -127 271 1 143 37 215 125 259 42 21 47 26
27 26 -14 0 -53 -14 -86 -30z"/>
<path d="M1288 803 c7 -3 16 -2 19 1 4 3 -2 6 -13 5 -11 0 -14 -3 -6 -6z"/>
<path d="M432 305 c-17 -37 -14 -45 4 -12 9 16 14 31 11 33 -2 2 -9 -7 -15
-21z"/>
<path d="M406 243 c-6 -14 -5 -15 5 -6 7 7 10 15 7 18 -3 3 -9 -2 -12 -12z"/>
<path d="M1290 240 c-34 -7 -34 -7 -5 -8 17 0 39 3 50 8 24 10 4 10 -45 0z"/>
</g>
</svg>
