<?xml version="1.0" standalone="no"?>
<!DOCTYPE svg PUBLIC "-//W3C//DTD SVG 20010904//EN"
 "http://www.w3.org/TR/2001/REC-SVG-20010904/DTD/svg10.dtd">
<svg version="1.0" xmlns="http://www.w3.org/2000/svg"
 width="183.000000pt" height="144.000000pt" viewBox="0 0 183.000000 144.000000"
 preserveAspectRatio="xMidYMid meet">

<g transform="translate(0.000000,144.000000) scale(0.100000,-0.100000)"
fill="#000000" stroke="none">
<path d="M0 720 l0 -720 915 0 915 0 0 720 0 720 -915 0 -915 0 0 -720z m1276
439 c56 -27 84 -82 84 -166 0 -88 -4 -93 -61 -93 -32 0 -49 4 -49 13 -1 41
-21 141 -31 153 -20 24 -66 17 -86 -13 -16 -24 -18 -59 -21 -289 -4 -278 3
-335 39 -355 56 -30 99 25 99 126 l0 56 58 -3 57 -3 -1 -76 c-2 -141 -47 -192
-172 -197 -68 -3 -81 -1 -112 20 -41 28 -76 77 -90 127 -13 47 -13 525 0 572
35 125 169 185 286 128z m-492 -131 c100 -539 126 -684 126 -700 0 -17 -7 -19
-62 -16 l-62 3 -7 40 c-4 22 -10 57 -14 78 l-6 38 -77 -3 -77 -3 -12 -75 c-6
-41 -12 -76 -12 -77 -1 -2 -31 -3 -67 -3 l-66 0 6 27 c3 16 38 204 76 418 39
215 73 396 75 403 3 8 28 12 78 12 l75 0 26 -142z"/>
<path d="M677 955 c-6 -28 -57 -377 -57 -389 0 -3 27 -6 60 -6 72 0 70 -19 35
226 -30 208 -30 208 -38 169z"/>
</g>
</svg>
